<?xml version="1.0" standalone="no"?>
<!DOCTYPE svg PUBLIC "-//W3C//DTD SVG 20010904//EN"
 "http://www.w3.org/TR/2001/REC-SVG-20010904/DTD/svg10.dtd">
<svg version="1.0" xmlns="http://www.w3.org/2000/svg"
 width="360.000000pt" height="360.000000pt" viewBox="0 0 360.000000 360.000000"
 preserveAspectRatio="xMidYMid meet">
<metadata>
Created by potrace 1.11, written by Peter Selinger 2001-2013
</metadata>
<g transform="translate(0.000000,360.000000) scale(0.100000,-0.100000)"
fill="#000000" stroke="none">
<path d="M3132 3399 c-46 -14 -118 -88 -131 -135 -14 -50 -14 -81 0 -141 24
-102 -42 -150 -164 -123 -176 40 -308 -14 -378 -155 -29 -59 -31 -71 -27 -138
11 -169 122 -279 288 -284 86 -2 148 20 211 75 72 63 113 198 87 287 -18 60
-18 137 -1 166 26 44 55 52 137 38 62 -11 78 -10 122 5 185 61 193 325 12 400
-41 18 -105 19 -156 5z"/>
<path d="M1730 3374 c-168 -55 -248 -224 -180 -382 78 -181 326 -217 458 -66
64 72 81 165 51 273 -17 62 -96 141 -163 164 -47 16 -133 21 -166 11z"/>
<path d="M810 2961 c-145 -44 -219 -202 -159 -340 83 -194 358 -201 454 -12
27 53 31 142 10 197 -47 122 -184 192 -305 155z"/>
<path d="M1704 2521 c-130 -33 -214 -152 -214 -304 0 -188 121 -307 311 -307
139 0 244 68 289 187 18 47 21 73 18 138 -7 130 -64 222 -166 268 -51 22 -182
33 -238 18z"/>
<path d="M3035 2066 c-91 -28 -156 -86 -188 -166 -22 -57 -17 -163 11 -221 63
-135 242 -194 372 -123 246 134 173 492 -105 517 -28 3 -68 -1 -90 -7z"/>
<path d="M395 2011 c-153 -69 -181 -276 -53 -385 106 -91 257 -69 341 50 55
79 46 202 -21 276 -67 74 -180 99 -267 59z"/>
<path d="M1349 1801 c-53 -17 -122 -65 -159 -112 -60 -76 -80 -142 -80 -260
l0 -101 47 -56 c26 -32 69 -75 95 -97 26 -22 54 -46 62 -52 8 -7 17 -13 20
-13 3 0 6 68 6 150 l0 150 35 0 35 0 0 -174 0 -173 58 -26 c109 -49 176 -61
332 -62 152 0 214 12 343 67 l47 20 0 174 0 174 35 0 35 0 0 -150 c0 -142 1
-150 18 -141 32 17 157 138 186 180 28 40 28 41 24 168 -4 116 -7 133 -32 183
-32 63 -72 102 -136 133 -44 22 -54 22 -495 24 -247 1 -462 -2 -476 -6z"/>
<path d="M2620 1109 c-200 -90 -199 -373 2 -459 92 -39 213 -15 279 57 90 96
90 251 1 347 -67 72 -192 96 -282 55z"/>
<path d="M787 1069 c-45 -24 -103 -91 -111 -131 -22 -110 23 -206 118 -249
105 -48 236 3 282 110 30 70 8 178 -47 231 -62 59 -169 76 -242 39z"/>
<path d="M1716 706 c-81 -30 -145 -121 -146 -206 0 -75 18 -121 69 -171 87
-88 215 -94 308 -14 71 61 99 153 73 246 -13 47 -75 118 -122 139 -47 21 -131
24 -182 6z"/>
</g>
</svg>
